<svg height="409pt" viewBox="0 0 409.52802 409" width="409pt" xmlns="http://www.w3.org/2000/svg"><path d="m205.214844 141.75c-34.699219-.003906-62.828125 28.125-62.832032 62.824219 0 34.699219 28.128907 62.832031 62.828126 62.832031 34.699218 0 62.828124-28.128906 62.828124-62.828125s-28.125-62.824219-62.824218-62.828125zm0 81.972656c-10.570313 0-19.144532-8.570312-19.144532-19.144531s8.574219-19.144531 19.144532-19.144531c10.574218 0 19.144531 8.570312 19.144531 19.144531s-8.570313 19.144531-19.144531 19.144531zm0 0" fill="#e3635b"/><path d="m205.214844 141.75c-4.253906 0-8.5.425781-12.671875 1.28125 29.203125 6.019531 50.152343 31.730469 50.152343 61.542969 0 29.816406-20.949218 55.527343-50.152343 61.546875 23.484375 4.839844 47.671875-4.109375 62.351562-23.066406 14.683594-18.953126 17.296875-44.609376 6.738281-66.136719-10.554687-21.527344-32.441406-35.167969-56.417968-35.167969zm0 0" fill="#fa897a"/><path d="m166.660156 204.578125c.007813-30.015625 21.242188-55.835937 50.691406-61.632813-24.914062-4.9375-50.351562 5.617188-64.457031 26.738282-14.109375 21.125-14.109375 48.660156 0 69.785156 14.105469 21.121094 39.542969 31.671875 64.457031 26.738281-29.449218-5.796875-50.683593-31.617187-50.691406-61.628906zm0 0" fill="#c54d3b"/><path d="m205.214844.265625c-112.835938 0-204.3125 91.472656-204.3125 204.3125s91.476562 204.3125 204.3125 204.3125c112.839844 0 204.3125-91.472656 204.3125-204.3125s-91.472656-204.3125-204.3125-204.3125zm0 267.136719c-34.699219 0-62.832032-28.128906-62.832032-62.828125s28.128907-62.828125 62.832032-62.828125c34.699218 0 62.828125 28.132812 62.824218 62.832031 0 34.699219-28.125 62.824219-62.824218 62.828125zm0 0" fill="#3a484a"/><path d="m205.214844.265625c-6.105469 0-12.136719.320313-18.105469.84375 105.398437 9.355469 186.207031 97.652344 186.207031 203.46875s-80.808594 194.113281-186.207031 203.46875c5.96875.523437 12 .84375 18.105469.84375 112.839844 0 204.3125-91.472656 204.3125-204.3125s-91.472656-204.3125-204.3125-204.3125zm0 0" fill="#59636d"/><g fill="#2c363e"><path d="m44.519531 204.578125c.007813-104.394531 78.707031-191.992187 182.503907-203.140625-7.242188-.773438-14.523438-1.164062-21.808594-1.171875-73.207032-.3242188-140.992188 38.546875-177.691406 101.894531-36.699219 63.347656-36.699219 141.484375 0 204.832032 36.699218 63.347656 104.484374 102.21875 177.691406 101.894531 7.285156-.007813 14.566406-.398438 21.808594-1.171875-103.792969-11.148438-182.492188-98.746094-182.503907-203.136719zm0 0"/><path d="m161.597656 312.304688c-1.101562 0-2.191406-.230469-3.203125-.675782-26.949219-11.765625-48.460937-33.273437-60.230469-60.222656-1.773437-4.046875.066407-8.765625 4.113282-10.539062 4.042968-1.777344 8.761718.066406 10.539062 4.109374 10.15625 23.269532 28.730469 41.84375 52 52 3.472656 1.515626 5.40625 5.257813 4.628906 8.96875-.773437 3.707032-4.042968 6.363282-7.828124 6.363282zm0 0"/><path d="m161.617188 362.632812c-.757813 0-1.511719-.109374-2.238282-.320312-53.867187-15.894531-95.996094-58.019531-111.898437-111.886719-1.230469-4.242187 1.210937-8.683593 5.453125-9.914062 4.246094-1.230469 8.683594 1.210937 9.914062 5.453125 14.347656 48.613281 52.367188 86.632812 100.980469 100.980468 3.832031 1.105469 6.269531 4.863282 5.707031 8.8125-.558594 3.949219-3.945312 6.882813-7.933594 6.875zm0 0"/><path d="m304.945312 168.976562c-3.179687 0-6.058593-1.882812-7.328124-4.796874-10.160157-23.269532-28.730469-41.84375-52-52-4.046876-1.773438-5.890626-6.492188-4.121094-10.539063 1.773437-4.046875 6.492187-5.890625 10.539062-4.117187 26.953125 11.765624 48.464844 33.277343 60.234375 60.226562 1.078125 2.472656.839844 5.320312-.636719 7.578125-1.476562 2.257813-3.992187 3.621094-6.6875 3.621094zm0 0"/><path d="m355.265625 168.976562c-3.558594 0-6.691406-2.351562-7.679687-5.769531-14.34375-48.621093-52.363282-86.648437-100.980469-100.996093-4.246094-1.234376-6.6875-5.671876-5.457031-9.914063 1.234374-4.246094 5.671874-6.6875 9.914062-5.453125 53.867188 15.894531 95.992188 58.023438 111.890625 111.886719.703125 2.417969.226563 5.027343-1.285156 7.039062-1.511719 2.015625-3.886719 3.199219-6.402344 3.195313zm0 0"/></g></svg>